<?xml version="1.0" encoding="UTF-8"?><svg id="_レイヤー_2" xmlns="http://www.w3.org/2000/svg" viewBox="0 0 291.84 64.54"><defs><style>.cls-1{fill:#fff;}</style></defs><g id="_レイヤー_1-2"><g><g><path class="cls-1" d="M80.85,6.37c0,2.76-1.22,5.16-3.67,7.2-2.31,1.94-4.87,2.91-7.7,2.91-2.13,0-3.87-.51-5.23-1.53-1.53-1.14-2.29-2.74-2.29-4.78,0-2.22,.92-4.44,2.76-6.66,1.91-2.34,3.94-3.51,6.11-3.51,1.33,0,2.15,.61,2.44,1.82,.62-.17,1.26-.26,1.9-.26,1.61,0,2.93,.39,3.95,1.17,1.14,.87,1.72,2.08,1.72,3.64Zm-8.06-4.42c-.23-.99-.93-1.48-2.11-1.48-1.65,0-3.2,1.01-4.65,3.02-1.35,1.87-2.03,3.67-2.03,5.38,0,.52,.04,1.1,.13,1.74,.62-4.12,3.51-7.01,8.66-8.66Zm7.12,5.49c0-1.39-.55-2.43-1.64-3.12-.9-.57-2.09-.86-3.56-.86-2.29,0-4.46,.64-6.5,1.92-2.31,1.44-3.54,3.23-3.72,5.38h-.36c.03,1.33,.83,2.43,2.39,3.28,1.3,.69,2.69,1.04,4.16,1.04,2.22,0,4.27-.71,6.16-2.13,2.04-1.53,3.07-3.36,3.07-5.51Z"/><path class="cls-1" d="M92.57,13.39c-.05,.35-.65,.92-1.79,1.7-1.14,.79-1.91,1.18-2.29,1.18-.43,0-.72-.32-.86-.96-.09-.59-.17-1.2-.25-1.82s-.26-.94-.56-.94c-.4,0-1.27,.64-2.63,1.91-1.35,1.27-2.18,1.91-2.47,1.91s-.44-.33-.44-.99c0-1.02,.22-1.92,.68-2.68,.21-.35,.64-.81,1.3-1.38,.66-.57,1.15-.87,1.48-.88l.29,.26c0,.05-.29,.49-.86,1.3-.57,.82-.86,1.47-.86,1.98l.18,.34c.12-.03,.82-.62,2.11-1.74,1.23-1.07,2.12-1.61,2.68-1.61,.42,0,.68,.32,.81,.96,.07,.59,.14,1.2,.22,1.82s.29,.94,.64,.94c.24,0,.67-.24,1.29-.71,.61-.48,.99-.73,1.13-.77l.21,.18Z"/><path class="cls-1" d="M100.61,13.62c-.05,.43-.76,1-2.13,1.7-1.37,.7-2.38,1.05-3.02,1.05-.71,0-1.33-.19-1.85-.57-.57-.43-.86-.99-.86-1.66,0-.9,.6-1.83,1.79-2.78,1.14-.92,2.18-1.38,3.12-1.38,.26,0,.49,.09,.69,.29,.2,.19,.3,.42,.3,.68,0,1.35-1.47,2.21-4.42,2.57,.19,.85,1.01,1.27,2.47,1.27,.69,0,1.42-.21,2.18-.62,.85-.47,1.37-.72,1.56-.75l.16,.21Zm-3.51-2.18c0-.35-.14-.52-.42-.52-.52,0-1.01,.22-1.48,.66-.47,.44-.79,.93-.96,1.47,1.91-.19,2.86-.73,2.86-1.61Z"/><path class="cls-1" d="M126.32,6.37c0,2.76-1.22,5.16-3.67,7.2-2.31,1.94-4.87,2.91-7.7,2.91-2.13,0-3.87-.51-5.23-1.53-1.53-1.14-2.29-2.74-2.29-4.78,0-2.22,.92-4.44,2.76-6.66,1.91-2.34,3.94-3.51,6.11-3.51,1.33,0,2.15,.61,2.44,1.82,.62-.17,1.26-.26,1.9-.26,1.61,0,2.93,.39,3.95,1.17,1.14,.87,1.72,2.08,1.72,3.64Zm-8.06-4.42c-.23-.99-.93-1.48-2.11-1.48-1.65,0-3.2,1.01-4.65,3.02-1.35,1.87-2.03,3.67-2.03,5.38,0,.52,.04,1.1,.13,1.74,.62-4.12,3.51-7.01,8.66-8.66Zm7.12,5.49c0-1.39-.55-2.43-1.64-3.12-.9-.57-2.09-.86-3.56-.86-2.29,0-4.46,.64-6.5,1.92-2.31,1.44-3.54,3.23-3.72,5.38h-.36c.03,1.33,.83,2.43,2.39,3.28,1.3,.69,2.69,1.04,4.16,1.04,2.22,0,4.27-.71,6.16-2.13,2.04-1.53,3.07-3.36,3.07-5.51Z"/><path class="cls-1" d="M134.32,13.21c-.04,.43-.71,1.07-2.04,1.91s-2.23,1.26-2.72,1.26c-.38,0-.78-.16-1.18-.47s-.61-.65-.61-1.01c0-.23,.26-.53,.77-.91,.51-.38,.77-.64,.77-.78s-.5-.51-1.51-1.12c-.47,.54-.82,.82-1.07,.86l-.21-.18c.17-.23,.45-.54,.83-.94-.14-.1-.21-.23-.21-.39,0-.21,.29-.62,.87-1.22,.58-.61,.98-.91,1.18-.91,.28,0,.42,.15,.42,.44,0,.21-.21,.54-.62,.99,1.13,.64,1.69,1.14,1.69,1.51,0,.28-.19,.57-.57,.87-.38,.3-.57,.57-.57,.79,0,.28,.16,.5,.49,.68,.28,.14,.56,.21,.85,.21,.55,0,1.22-.29,2.02-.87,.79-.58,1.2-.87,1.22-.87l.21,.16Z"/><path class="cls-1" d="M144.85,13.39c-.12,.24-.64,.69-1.56,1.33-.61,.42-1.21,.84-1.82,1.27-.66,1.06-1.5,2.31-2.52,3.77-.43,.5-.98,1.07-1.64,1.69-.88,.87-1.45,1.3-1.69,1.3-.09,0-.18-.12-.27-.36-.1-.24-.14-.42-.14-.52,0-.73,.5-1.55,1.51-2.47,.92-.78,1.84-1.55,2.76-2.31,1-.9,1.51-1.7,1.51-2.39,0-.47-.2-.95-.6-1.46l-.21,.13-.16-.13c-1.16,1.07-1.8,1.66-1.92,1.74-.85,.66-1.61,.99-2.29,.99-.47,0-.87-.16-1.2-.49-.33-.33-.49-.72-.49-1.17,0-1.07,.76-2,2.29-2.78,1.35-.69,2.6-.98,3.74-.86,.22-.55,.53-.83,.91-.83l.42,.57-.26,.83c.68,.45,1.01,1.2,1.01,2.24,0,.4-.1,.86-.29,1.38l.03,.03c.43-.31,.88-.62,1.33-.91,.55-.38,1.01-.64,1.38-.78l.18,.21Zm-4.89-2.26c-.19-.03-.38-.05-.57-.05-.76,0-1.45,.19-2.05,.57-.69,.43-1.04,1-1.04,1.72,0,.26,.1,.47,.31,.62s.44,.23,.7,.23c.68,0,1.52-.45,2.52-1.35-.07-.22-.1-.42-.1-.57,0-.38,.08-.77,.23-1.17Z"/><path class="cls-1" d="M156.34,13.49c-.07,.36-.75,.92-2.05,1.66s-2.17,1.12-2.6,1.12c-.64,0-.96-.29-.96-.86,0-.33,.16-.73,.47-1.21,.31-.48,.47-.82,.47-1.03l-.23-.29c-.88,.69-1.77,1.39-2.65,2.08-1.23,.94-2.17,1.4-2.81,1.4-.38,0-.71-.14-.99-.42-.28-.28-.42-.61-.42-.99,0-1.02,.67-1.99,2-2.89,1.21-.83,2.37-1.25,3.46-1.25,.38,0,.74,.06,1.07,.18,.16-.69,.42-1.04,.81-1.04,.42,0,.62,.24,.62,.73,0,.12-.03,.31-.09,.56-.06,.25-.09,.44-.09,.56,0-.02,.15,.14,.46,.48,.3,.34,.45,.71,.43,1.1l-.03,.49c-.02,.42,.09,.62,.34,.62,.47,0,1.34-.44,2.63-1.33l.18,.29Zm-5.25-1.38c0-.54-.24-.81-.73-.81-.73,0-1.46,.23-2.21,.7-.83,.54-1.25,1.14-1.25,1.82,0,.54,.27,.81,.81,.81,.42,0,1.08-.32,2-.96,.92-.64,1.38-1.16,1.38-1.56Z"/><path class="cls-1" d="M168.07,13.39c-.05,.35-.65,.92-1.79,1.7-1.14,.79-1.91,1.18-2.29,1.18-.43,0-.72-.32-.86-.96-.09-.59-.17-1.2-.25-1.82s-.26-.94-.56-.94c-.4,0-1.27,.64-2.63,1.91-1.35,1.27-2.18,1.91-2.47,1.91s-.44-.33-.44-.99c0-1.02,.22-1.92,.68-2.68,.21-.35,.64-.81,1.3-1.38,.66-.57,1.15-.87,1.48-.88l.29,.26c0,.05-.29,.49-.86,1.3-.57,.82-.86,1.47-.86,1.98l.18,.34c.12-.03,.82-.62,2.11-1.74,1.23-1.07,2.12-1.61,2.68-1.61,.42,0,.68,.32,.81,.96,.07,.59,.14,1.2,.22,1.82s.29,.94,.64,.94c.24,0,.67-.24,1.29-.71,.61-.48,.99-.73,1.13-.77l.21,.18Z"/><path class="cls-1" d="M174.69,13.47c-.02,.4-.68,.98-2,1.75-1.32,.77-2.22,1.16-2.7,1.16-1.09,0-1.64-.62-1.64-1.85,0-.73,.29-1.45,.86-2.16,.55-.57,1.11-1.14,1.66-1.72,.23-.24,.46-.36,.7-.36,.23,0,.34,.1,.34,.31,0,.07-.31,.47-.92,1.2-.62,.73-.92,1.31-.92,1.74,0,.83,.43,1.25,1.3,1.25,.57,0,1.23-.26,1.98-.78,.4-.26,.79-.53,1.17-.81l.18,.26Zm-.47-6.08c0,.21-.2,.4-.58,.58-.39,.18-.71,.27-.95,.27-.28,0-.56-.09-.84-.27-.29-.18-.43-.4-.43-.66,0-.17,.14-.4,.42-.69s.5-.43,.68-.43,.34,.08,.51,.25,.32,.32,.46,.48l.42,.21c.22,.1,.34,.19,.34,.26Z"/><path class="cls-1" d="M182.58,13.39c-.02,.36-.84,.96-2.47,1.79-1.56,.8-2.58,1.2-3.07,1.2-.64,0-1.19-.19-1.64-.57-.45-.38-.68-.89-.68-1.53,0-1,.69-1.92,2.08-2.73,1.21-.73,2.37-1.09,3.46-1.09,.4,0,.6,.15,.6,.44,0,.45-.18,.68-.55,.68-.17,0-.42-.03-.74-.09-.32-.06-.57-.09-.74-.09-.54,0-1.03,.18-1.48,.55-.5,.38-.75,.83-.75,1.35,0,.43,.17,.79,.51,1.08s.73,.43,1.18,.43c.61,0,1.4-.26,2.39-.79,.99-.53,1.53-.79,1.64-.79l.26,.18Z"/><path class="cls-1" d="M209.16,7.96c0,2.17-.64,4.09-1.92,5.77-1.39,1.84-3.13,2.76-5.23,2.76-1.82,0-2.73-.57-2.73-1.72,0-.73,.36-1.71,1.09-2.94-1.91,.31-3.51,.47-4.81,.47-1.59,0-2.95-.38-4.06-1.14-1.25-.87-1.87-2.06-1.87-3.59,0-2.38,1.14-4.25,3.43-5.64,1.96-1.18,4.2-1.77,6.73-1.77s4.34,.44,5.8,1.33c.24-.59,.55-1.03,.94-1.33l.31,.31c-.1,.5-.29,1-.57,1.48,1.92,1.49,2.89,3.49,2.89,6.01Zm-4.51-4.63c-1.8-1.05-4.09-1.58-6.87-1.58-4.48,0-6.72,1.47-6.72,4.42,0,1.54,.99,2.76,2.96,3.67,1.56,.71,3.21,1.07,4.98,1.07,.78,0,1.39-.03,1.84-.08l3.82-7.49Zm3.57,5.91c0-1.06-.26-2.07-.77-3.04-.51-.97-1.2-1.78-2.07-2.42l-3.54,6.99c.49-.1,.97-.2,1.46-.29,.59-.12,1.08-.18,1.48-.18,.23,0,.34,.1,.34,.31s-.55,.42-1.66,.65c-.68,.14-1.36,.27-2.05,.39-.38,.78-.57,1.34-.57,1.69,0,.73,.67,1.09,2,1.09,1.63,0,2.93-.46,3.91-1.39,.98-.93,1.47-2.2,1.47-3.81Z"/><path class="cls-1" d="M222.15,13.49c-.07,.36-.75,.92-2.05,1.66s-2.17,1.12-2.6,1.12c-.64,0-.96-.29-.96-.86,0-.33,.16-.73,.47-1.21,.31-.48,.47-.82,.47-1.03l-.23-.29c-.88,.69-1.77,1.39-2.65,2.08-1.23,.94-2.17,1.4-2.81,1.4-.38,0-.71-.14-.99-.42-.28-.28-.42-.61-.42-.99,0-1.02,.67-1.99,2-2.89,1.21-.83,2.37-1.25,3.46-1.25,.38,0,.74,.06,1.07,.18,.16-.69,.42-1.04,.81-1.04,.42,0,.62,.24,.62,.73,0,.12-.03,.31-.09,.56s-.09,.44-.09,.56c0-.02,.15,.14,.46,.48,.3,.34,.45,.71,.43,1.1l-.03,.49c-.02,.42,.09,.62,.34,.62,.47,0,1.34-.44,2.63-1.33l.18,.29Zm-5.25-1.38c0-.54-.24-.81-.73-.81-.73,0-1.47,.23-2.21,.7-.83,.54-1.25,1.14-1.25,1.82,0,.54,.27,.81,.81,.81,.42,0,1.08-.32,2-.96,.92-.64,1.38-1.16,1.38-1.56Z"/><path class="cls-1" d="M232.57,13.34c-.14,.23-.26,.38-.36,.47l-3.17,2.68c-.35,.29-.9,1.01-1.66,2.16-.88,1.37-1.53,2.29-1.95,2.76-.76,.9-1.43,1.35-2,1.35-.36,0-.55-.18-.55-.55,0-.62,.48-1.4,1.43-2.31,.9-.8,1.8-1.6,2.7-2.42,.95-.95,1.43-1.81,1.43-2.57,0-.62-.17-.94-.49-.94-.16,0-.76,.33-1.82,1-1.06,.67-1.82,1-2.29,1-.76,0-1.14-.57-1.14-1.72,0-.71,.34-1.43,1.01-2.16,.21-.22,.82-.77,1.85-1.64l.23,.31s-.23,.34-.69,.92c-.46,.58-.69,1.09-.69,1.52,0,.33,.11,.61,.33,.83,.22,.23,.49,.34,.82,.34,.62,0,1.59-.46,2.89-1.38,1.3-.92,1.98-1.38,2.05-1.38,.19,0,.29,.23,.29,.68,0,.66-.34,1.64-1.01,2.94l.05,.05c.4-.38,.79-.77,1.17-1.17,.49-.45,.94-.76,1.35-.94l.23,.16Z"/></g><g><path class="cls-1" d="M22.09,41.36c-.68,1.18-.91,2.62-.95,3.34-.23,2.09-.76,5.32-2.05,9.23-2.01,6-5.21,8.78-5.85,9.08-.3,.15-.87,.42-1.44,.04-.72-.49-.42-1.33-.04-2.13,.84-1.75,2.2-5.24,2.96-9.61,.53-2.96,.65-7.98,.68-9.31-.72-.08-2.96,0-4.22,.27-.65,.11-2.13,.8-3.19,.8-.84,.04-1.48-.38-1.9-.72-.08,1.1-.23,3.04-.15,4.14,.04,.46,.15,1.25,.23,1.67,.15,1.1,.3,2.01-.27,2.85-.68,.99-1.98,1.41-2.96,1.41-2.09,0-1.98-1.75-1.98-4.07,.04-.68,0-1.82,0-2.85-.04-1.03-.49-3.65-.84-4.75-.61-1.9,.84-3.69,4.79-2.13,0,0,1.71,.49,5.21,.3,4.1-.23,8.13-1.29,8.7-1.29,.99,0,2.66,.91,3.27,2.09,.34,.57,.3,1.14,0,1.63Z"/><path class="cls-1" d="M36.01,44.66c-1.06-1.9-3.84-4.48-4.07-4.64-.68-.61-1.1-.99-.99-1.6,.15-.72,.87-.99,1.63-.99,2.92,0,5.62,1.14,7.83,3.23,1.22,1.14,1.63,2.58,1.1,3.84-.68,1.79-2.47,1.9-3,1.82-.87-.08-2.01-.8-2.51-1.67Zm15.88,4.6c-1.56,3.57-3.34,6.38-4.56,7.67-2.24,2.43-3.57,3.53-5.32,4.33-2.96,1.41-5.28,1.14-6.27,.34-2.13-1.67-1.25-3.76-2.05-5.21-.42-.76-.84-1.75-.11-2.39,.84-.8,1.75-.23,2.81,.8,.57,.57,1.37,1.18,1.37,1.18,0,0,.91-.27,1.52-.53,.87-.38,3.72-2.28,4.52-2.89,1.6-1.22,3.34-2.7,4.41-3.61,.76-.61,1.29-1.1,1.82-1.48,.57-.38,1.14-.49,1.71-.04,.46,.38,.49,1.06,.15,1.82Z"/><path class="cls-1" d="M80.96,45.27c-.8,0-5.85,.3-5.85,.3-.15,2.54-.04,6.31,.04,7.45,.04,1.1,.08,2.93,.27,4.1,.23,1.48,.27,2.55,.15,3.31-.42,2.7-2.93,3.12-3.61,3.08-1.44-.11-2.24-1.03-3-1.94-.11-.11-.53-.53-.68-.65-.38-.27-.84-.84-.72-1.37,.11-.57,.57-.91,1.22-.91,.42,0,2.24,.34,2.47,.38,.08-1.37,0-6,0-6.35-.65,.84-3.19,3.5-3.5,3.76-2.2,1.94-4.67,3.65-5.51,3.91-.57,.19-1.14,.11-1.44-.38-.3-.38-.19-1.03,.08-1.41,.8-1.14,4.29-5.28,5.51-6.95,1.14-1.56,3.08-4.41,3.84-5.62-.72,.08-2.09,.23-3,.34-2.2,.23-4.52,.84-5.55,.57-1.44-.38-2.66-1.67-2.74-3.19-.04-.53,.08-.91,.34-1.18,.84-.87,2.93-.23,4.41-.19,1.94,.04,4.67-.04,6.92-.23-.27-2.51-.8-4.22-.95-5.39-.15-.87,.46-1.75,1.82-1.75s3.12,.87,3.65,2.51c.27,.8,.3,1.86,.11,2.47-.23,.72-.3,1.48-.3,1.82,.61-.11,3.15-.61,3.61-.76,1.56-.42,2.89-.72,4.1,.08,.84,.53,1.37,1.22,1.44,1.94,.19,1.14-.72,2.24-3.12,2.24Z"/><path class="cls-1" d="M110.39,52.79c-.3,0-3.53-.3-4.14-.34-2.47-.15-6.23,0-8.62,.34-1.48,.23-3.34,.87-4.52,.76-2.28-.15-3.69-2.09-3.8-3.72-.04-1.14,.91-1.82,2.13-1.63,2.96,.46,4.41,.65,6.46,.84,2.66,.27,6.27-.11,8.43-.84,1.67-.57,2.74-.61,3.8-.61,1.94,.04,3.69,1.48,3.84,2.93,.11,.91-.46,2.51-3.57,2.28Z"/><path class="cls-1" d="M143.77,47.13c.3,.61,.27,1.18,0,1.71-.15,.27-.53,.76-.65,1.33-1.14,6.65-2.28,9.58-2.74,10.52-.65,1.41-2.01,2.36-3.42,2.36s-2.58-.87-3.19-3.04c-.23-.72-1.14-1.82-.57-2.51,.61-.76,1.44-.27,2.24,.42,.46,.38,1.29,.99,1.29,.95,.76-.42,1.25-4.33,1.33-9.42-.8,.11-4.29,.42-5.62,.61-.19,1.06-.61,3.15-1.29,5.32-.68,2.13-1.44,3.34-1.94,4.06-.3,.46-.87,1.22-1.67,1.14-.76-.11-1.06-.72-.95-1.41,.04-.3,.19-1.25,.42-2.36,.3-1.63,.65-3.76,.87-5.85-1.37,.23-2.66,.8-3.76,.76-1.67,0-3.15-1.14-3.42-2.62-.19-1.14,.38-1.9,2.51-1.9,1.52,0,4.22-.23,5.21-.34,.11-1.52,.3-5.66,.27-8.13,0-.8,.53-1.48,1.63-1.48,1.48,0,3.31,1.18,3.61,2.89,.19,1.06-.04,1.79-.27,2.47-.42,1.14-.68,3.8-.72,4.03,4.03-.19,6.76-1.33,7.94-1.41,.95-.04,2.32,.91,2.89,1.9Zm.42-6c.08,1.56-.91,2.32-1.94,2.32-.95,0-1.71-.53-1.94-1.41-.19-.68,.15-1.6,.19-1.86,.08-.65,.08-1.37,.04-1.79-.11-1.03,.15-1.52,.57-1.67,.46-.23,1.03-.04,1.52,.61,.53,.72,1.44,2.13,1.56,3.8Zm2.77,2.32c-.95,0-1.71-.53-1.94-1.41-.19-.68,.15-1.6,.19-1.86,.08-.65,.08-1.37,.04-1.79-.11-1.03,.15-1.52,.57-1.67,.46-.23,1.03-.04,1.52,.61,.53,.72,1.44,2.13,1.56,3.8,.08,1.56-.91,2.32-1.94,2.32Z"/><path class="cls-1" d="M175.24,58.68c-.3-.04-3.42-.19-4.03-.19-2.85-.04-7.18,.42-8.47,.57-1.56,.19-4.03,.53-5.21,.46-2.36-.19-3.8-2.32-3.91-4.14-.04-1.22,.95-1.98,2.2-1.79,3.04,.49,6.23,.76,8.32,.72,2.92-.08,5.01-.27,6.54-.42,.99-.11,3.34-.87,4.45-.84,1.98,.04,3.61,1.52,3.8,3.12,.08,.99-.49,2.74-3.69,2.51Zm-18.58-16.41c0-1.48,1.06-2.17,3.5-1.6,.34,.08,2.24,.38,4.26,.38,1.14,0,2.13-.08,2.89-.19,1.56-.27,3.19-.87,4.03-.87,2.17-.04,3.34,1.82,3.46,3.23,.08,.72-.11,1.41-.53,1.82-.76,.76-2.32,.87-2.96,.87-.19,0-1.94-.19-2.66-.19-1.48,0-2.85,.15-3.99,.3-1.1,.15-2.51,.72-3.88,.65-2.09-.08-4.1-2.47-4.1-4.41Z"/><path class="cls-1" d="M188.27,52.76c-.27-1.25-.95-3.08-2.24-5.21-.34-.53-.42-.99-.19-1.33,.38-.57,.99-.53,1.48-.34,.87,.38,3.61,1.98,4.98,4.75,.53,1.18,.53,2.36-.04,3.27-.76,1.22-3.38,1.75-3.99-1.14Zm15.96-2.81c-.15,.99-.57,1.82-1.29,2.51-.72,.65-1.56,2.24-2.17,3.27-1.1,1.86-3.23,4.22-5.02,5.32-.99,.61-2.05,1.1-3.15,1.18-.8,.08-1.14-.15-1.33-.53-.23-.46,0-1.06,.61-1.56,1.94-1.6,4.29-4.48,5.78-7.26,.68-1.29,1.52-3.15,2.36-5.74,.38-1.14,2.28-1.44,3.42-.15,.61,.72,.95,1.94,.8,2.96Zm-12.46-5.4c-.15-.27-.76-1.22-.3-1.75,.38-.46,.76-.49,1.44-.23,.91,.34,3.19,1.41,4.48,4.07,.53,1.14,.53,2.32-.04,3.27-.76,1.18-3.34,1.79-3.99-1.14-.27-1.22-.8-2.81-1.6-4.22Z"/><path class="cls-1" d="M233.69,44.47c-.34,.53-.87,1.29-1.52,3.34-.91,2.85-2.2,5.32-3.38,7.33-2.92,4.9-6.88,7.22-8.55,7.83-.65,.27-1.44,.3-1.82-.27-.38-.57-.15-1.25,.19-1.63,1.71-1.9,3.95-4.45,5.97-8.24,1.37-2.58,2.58-6.04,3.08-8.02-.08,0-1.48-.04-3,.3-.53,.11-1.37,.23-1.94,.23-.72,0-1.52-.3-2.05-.72-.34,1.1-1.14,3.15-1.67,4.22-1.14,2.39-2.39,3.84-2.93,4.37-.42,.42-1.06,.72-1.56,.61-.76-.15-1.1-.84-.84-1.75,.84-2.62,1.71-5.89,2.13-8.05,.38-1.98,.72-4.37,.91-6.5,.08-.91,.68-1.44,1.63-1.44,1.41,0,3.53,1.37,3.69,3.46,.08,.8-.08,1.41-.23,1.82,.61,.08,1.52,.04,2.28,.04,2.36-.04,4.56-.19,5.4-.53,.8-.38,1.44-.53,2.13-.3,.87,.34,1.86,1.22,2.24,2.09,.3,.68,.23,1.29-.15,1.82Z"/><path class="cls-1" d="M265.01,50.25c.08,1.03-.61,2.39-3.69,2.36-1.25-.04-3.65,.15-5.05,.38-.04,.8-.11,2.09-.3,3.12-.38,2.2-.91,3.95-1.82,5.32-.61,.91-1.9,2.54-3.46,2.92-.65,.15-1.1,.04-1.37-.34-.23-.34-.27-.87,.04-1.52,1.14-2.36,1.71-4.45,1.56-8.85-.99,.15-3.69,.42-5.32,.42-2.2,0-3.88-2.13-3.88-4.03,0-1.18,.61-1.79,1.82-1.75,1.48,0,3.23,.65,5.66,.57,2.13-.08,4.6-.3,6.16-.53,1.86-.3,4.25-1.03,5.51-1.03,2.17,0,3.99,1.44,4.14,2.96Zm-22.95-10.03c0-1.86,1.52-1.86,3.61-1.48,.42,.08,2.85,.42,4.83,.3,1.79-.11,4.6-.76,4.94-.87,1.03-.23,2.01-.46,2.89-.46,1.94,0,3.69,1.52,3.84,3,.04,.65-.15,1.22-.57,1.63-.8,.84-2.7,.8-4.41,.8-.76,0-2.05,0-5.62,.23-1.1,.08-1.9,.27-2.93,.42-1.06,.15-1.98,.3-2.66,.3-2.09,0-3.91-1.82-3.91-3.88Zm25.46,2.13c.11,1.56-.91,2.32-1.94,2.32-.95,0-1.71-.53-1.94-1.41-.15-.68,.15-1.6,.19-1.86,.08-.65,.11-1.37,.04-1.79-.11-1.03,.19-1.52,.57-1.67,.46-.23,1.03-.04,1.56,.61,.49,.72,1.44,2.13,1.52,3.8Zm2.77,2.32c-.95,0-1.71-.53-1.9-1.41-.19-.68,.15-1.6,.15-1.86,.08-.65,.11-1.37,.04-1.79-.08-1.03,.19-1.52,.57-1.67,.46-.23,1.03-.04,1.56,.61,.49,.72,1.44,2.13,1.52,3.8,.11,1.56-.91,2.32-1.94,2.32Z"/><path class="cls-1" d="M291.45,43.07c-.65,1.06-1.22,1.56-2.28,2.17-.57,.34-2.62,2.2-3.84,3.53,.65,.42,1.18,1.44,.99,2.39-.57,3.19-.3,7.33-.11,9.73,.11,2.05-.15,3.65-1.71,3.65-.87,0-2.17-.57-2.92-1.63-.57-.84-.49-1.86-.27-3.04,.27-1.37,.3-5.85,.23-7.64-.91,.72-2.17,1.75-3.15,2.51-1.75,1.29-3.61,2.24-4.45,2.55-.68,.27-1.41,.19-1.75-.27-.3-.46-.27-1.1,.23-1.6,.15-.15,6.88-7.07,7.94-8.17,1.41-1.52,3.95-4.52,4.29-4.94,.91-1.14,1.75-2.24,2.93-3.91,.84-1.14,2.62-.99,3.61,.68,.61,1.06,.99,2.66,.27,3.99Z"/></g></g></g></svg>